/* XPM */
static char *s72UHYI2G9p_png[] = {
/* columns rows colors chars-per-pixel */
"64 64 229 2 ",
"   c None",
".  c #7F5804",
"X  c #845B04",
"o  c #895D09",
"O  c #835804",
"+  c #8B6504",
"@  c #8A620B",
"#  c #8F6C0B",
"$  c #846207",
"%  c #936C0A",
"&  c #9B710C",
"*  c #946D10",
"=  c #9C791C",
"-  c #9A7616",
";  c #A37C0D",
":  c #A27A16",
">  c #9E7E23",
",  c #A67F22",
"<  c #A6820D",
"1  c #AB840C",
"2  c #AE8609",
"3  c #B48B04",
"4  c #BC8F04",
"5  c #BA8D0A",
"6  c #B1870B",
"7  c #BD9204",
"8  c #BD930C",
"9  c #A78318",
"0  c #B88D14",
"q  c #B59412",
"w  c #BA921C",
"e  c #B2941E",
"r  c #A68C27",
"t  c #B18B2C",
"y  c #B4952A",
"u  c #BB9833",
"i  c #A8932D",
"p  c #BBA232",
"a  c #C29304",
"s  c #C89607",
"d  c #C49B03",
"f  c #CB9A06",
"g  c #C1940B",
"h  c #C5990D",
"j  c #CD9B0B",
"k  c #C59C12",
"l  c #CD9F11",
"z  c #C39B1A",
"x  c #CDA204",
"c  c #D2A503",
"v  c #D3AA03",
"b  c #DCAC03",
"n  c #DCAC09",
"m  c #D7AF0B",
"M  c #DEB305",
"N  c #DDB30B",
"B  c #DBB509",
"V  c #CCA313",
"C  c #CCA31A",
"Z  c #D2A614",
"A  c #D4AC14",
"S  c #D9AD14",
"D  c #D1A41C",
"F  c #DDB115",
"G  c #DCB419",
"H  c #DEBB1A",
"J  c #DAB817",
"K  c #E1AE02",
"L  c #E3B302",
"P  c #E9B502",
"I  c #E5BA02",
"U  c #EBBC02",
"Y  c #E1B40B",
"T  c #E6BC0B",
"R  c #EABE0B",
"E  c #F1BD05",
"W  c #F2BE09",
"Q  c #E0B413",
"!  c #E4BE14",
"~  c #EABD13",
"^  c #E2B61A",
"/  c #E5BC1B",
"(  c #E9BE1A",
")  c #C79D23",
"_  c #CBA523",
"`  c #C9A82C",
"'  c #DDBC26",
"]  c #DCB62A",
"[  c #CBAC34",
"{  c #C5AA37",
"}  c #CBB13C",
"|  c #DFBE3F",
" . c #E2BE2C",
".. c #E5BC22",
"X. c #DFC310",
"o. c #ECC102",
"O. c #E6C30D",
"+. c #EDC20C",
"@. c #E6C103",
"#. c #F3C402",
"$. c #F5C903",
"%. c #FACB04",
"&. c #F4C50B",
"*. c #F5CA0C",
"=. c #FACB0B",
"-. c #F9C506",
";. c #FAD206",
":. c #FCD40C",
">. c #F6D107",
",. c #E4C314",
"<. c #EBC313",
"1. c #EBCA12",
"2. c #EAC21B",
"3. c #EBCA1E",
"4. c #E6C719",
"5. c #F4C713",
"6. c #F3CB14",
"7. c #FACB14",
"8. c #F5CB1A",
"9. c #FBCD1B",
"0. c #F3C61D",
"q. c #FCD312",
"w. c #F6D31A",
"e. c #FCD11D",
"r. c #FAD918",
"t. c #DBC323",
"y. c #E5C221",
"u. c #EBC525",
"i. c #EDCC24",
"p. c #ECCB2A",
"a. c #E7C42B",
"s. c #FBCF21",
"d. c #F1CA28",
"f. c #EED727",
"g. c #F5D525",
"h. c #FDD424",
"j. c #FEDA20",
"k. c #F3D62C",
"l. c #FED62B",
"z. c #F6D92A",
"x. c #FDDA2C",
"c. c #F5DB23",
"v. c #E7CA35",
"b. c #EBD332",
"n. c #EDDA3A",
"m. c #FCD730",
"M. c #FDDA34",
"N. c #F5D53C",
"B. c #FDDD3B",
"V. c #F6D837",
"C. c #F5CF34",
"Z. c #FDE23D",
"A. c #FBEC3B",
"S. c #F6E62E",
"D. c #BBA443",
"F. c #C2AC46",
"G. c #C9B341",
"H. c #CEBD46",
"J. c #CDBC4A",
"K. c #D6BA46",
"L. c #C9BC52",
"P. c #D9C84A",
"I. c #DACA58",
"U. c #E1C44B",
"Y. c #E6CC43",
"T. c #ECDA42",
"R. c #EDD44B",
"E. c #E7D347",
"W. c #FCDE42",
"Q. c #F2DA4C",
"!. c #F1D346",
"~. c #E1CC59",
"^. c #E6CC59",
"/. c #EADC5B",
"(. c #E6D458",
"). c #F2DB58",
"_. c #FDE143",
"`. c #FDE34C",
"'. c #FCEA4E",
"]. c #F6E645",
"[. c #EEE259",
"{. c #FDE554",
"}. c #F6EB54",
"|. c #FDE855",
" X c #F5E15A",
".X c #FDE65A",
"XX c #FDEA5C",
"oX c #F7E656",
"OX c #DFD673",
"+X c #E9DB66",
"@X c #F2DC6B",
"#X c #EEDF79",
"$X c #F0DD73",
"%X c #EBE263",
"&X c #ECE46D",
"*X c #EDE96C",
"=X c #F2E462",
"-X c #FAE562",
";X c #F6E962",
":X c #FDED64",
">X c #F5EC6C",
",X c #FCEE6A",
"<X c #F4E16A",
"1X c #FCF165",
"2X c #F6F36A",
"3X c #FDF36C",
"4X c #FEFA6D",
"5X c #F7F763",
"6X c #EDEA73",
"7X c #EDE97C",
"8X c #EBE57A",
"9X c #F4EC73",
"0X c #FCEE73",
"qX c #F3E978",
"wX c #FDF472",
"eX c #FEFB74",
"rX c #FEFE7B",
"tX c #F7F478",
"yX c #F1DE87",
"uX c #F4E580",
"iX c #F6EB89",
"pX c #FEFE84",
"aX c #FEFE8A",
"sX c #F5F384",
"dX c #F4E896",
"fX c #FDFD92",
"gX c #F1F098",
"hX c #F8EBA8",
"jX c #EDE8A3",
/* pixels */
"                                                                                                                                ",
"                                                                                                                                ",
"                                                                                                                                ",
"                                                                                                                                ",
"                                                                                                                                ",
"                                                                                                                                ",
"                                                  7X9X>X2X3X,X,X,X,X:X;X=X=X%X                                                  ",
"                                            6X>X0X0X0X,X3X3X,X:X1X1X:X:XXX.X.XXXoX[.                                            ",
"                                        6X2X3X3X3XwXwX<X^.K.} [ ` { } K.U.)..X.X.X`.].[.                                        ",
"                                    9X2X5X3XwX3X/.G.y = @ O O X O . X X + ; w ` Y.`.]._._.Q.                                    ",
"                                  2X3XwX3X>XI.u * X @ - r p F.H.P.H.G.{ y 9 # + & w ' V.Z._.T.                                  ",
"                              6XwX3X3XwXI.t o o = D.I.&XtXrXrXeXeXeXeX3X2X;X(.} y * % q  .M.x.x.T.                              ",
"                            6X3XwX3X>XF.# o > L.8XpXpXpXpXrXeXeXeXeX3X3X1X1XXX|.oXY.p & & ) C.M.V.R.                            ",
"                          7X3X3X3X+Xt o - F.8XfXfXaXaXpXpXpXrXeX4X4X4X3X3X,XXX}.|.{.`.v.e & 0 a.M.z.T.                          ",
"                        6X3X3X3X~.= o r OXfXfXfXaXaXaXsX&X+X+X%X/./././.[.XXXX.X.X{._.Z.W.] ; 1 ..x.x.n.                        ",
"                      8X1X3X3X~.* @ D.8XfXfXfXaXaXaXaXI.9 ; < < < 1 1 1 q Y..X.X{.`._.B.B.B.a.9 1 / x.c.                        ",
"                      0X0X3X/.= @ D.sXfXaXaXaXaXaXpXpX} 2 4 7 7 7 g g g k !.{.{.`._.Z.B.M.B.x.u.0 5 2.h.r.                      ",
"                    >X:X0X=X9 o F.sXaXaXaXaXaXaXpXpXpX} 2 7 a g h h h h V N.`.`._.Z.Z.B.M.M.x.h.i.8 g 8.r.b.                    ",
"                  &X0X1X:Xu X i 7XaXaXaXaXaXpXpXpXrXrX} 3 7 h h k k k k V N.W.W.B.B.B.M.M.x.l.l.h...5 v w.w.d.                  ",
"                  >X3X1XP.@ = +XpXpXpXpXpXpXpXrXrXeXeX} 3 d l Z Z Z V V A V.B.B.B.B.M.M.x.l.h.h.s.s.G g T q.w.                  ",
"                *X1X1X X: @ L.pXpXpXpXpXpXpXpXrXrXeXeX} 3 d Z F F F F S G B.B.B.B.B.M.x.l.h.h.s.9.8.8.Z c *.7.d.                ",
"                >X:X:XK.X r tXrXrXpXrXrXrXrXrXrXeXeX4X[ 3 d S ^ ^ ^ ^ F G B.B.M.M.M.M.l.h.h.e.9.8.8.8.( x T =.6.                ",
"              *X:X:X-X, $ P.rXeXrXrXrXeXeXeXeXeXeX3X3X[ 3 x F / / / ^ F H B.B.M.M.m.x.h.h.e.9.9.8.8.0.5.N b *.>.                ",
"              ;X-X:XU.@ r 2XeXeXeXeXeXeXeXeXwX3X3X1X1X[ 4 x F / / / / F H V.B.M.x.l.h.h.s.9.9.9.7.5.&.&.R b +.%.5.              ",
"              -XXX-Xy X J.eXeXeXeXeXeXeXwXwX3X3X1X:X1X[ 7 x F / ( / / ^ H V.M.x.l.h.h.9.9.9.7.7.7.&.&.+.+.L I =.*.              ",
"            &X-X|. X= # %X4X3X3X3X3X3X3X3X,X,X:X:XXXXX` 7 c Q / / / / ^ H M.m.l.h.h.e.9.7.7.7.=.&.-.#.o.+.I I &.$.              ",
"            ;X.X|.R.% r 1X3X3X3X3X3X3X1X:X:X:X:XXX|.|.` 7 c Q ! / / / ^ / M.x.l.h.h.9.7.7.7.&.-.-.#.#.o.o.U U #.$.p.            ",
"            -X|.|.K.+ { 3X1X1X:X:X:X:X:X:X:XXX.X.X{.`._ 7 c Y ~ ( / / / / m.h.h.e.9.9.7.7.&.&.-.-.#.#.#.o.U U o.$.6.            ",
"            -X'.|.[ + P.3X1X:X:X:X:X:X:XXXXX.X.X{.`._._ 7 v Y <.2.! / / y.m.h.9.9.9.7.7.&.&.&.&.#.#.#.#.o.U U &.#.&.            ",
"            .X'.{.) # E.:XXXXXXXXXXXXX.X.X.X{.`.`.W.B._ 7 v Y <.2./ / / y.m.h.9.9.7.7.*.&.#.#.#.#.#.U U U U E $.#.&.            ",
"            `.`.`.w & R.XX|.|.|..X.X.X{.{.`.`._._.B.B.C 7 v Y <.2.2.( / y.m.s.9.9.7.=.&.-.#.#.#.#.U U U U U E $.#.&.            ",
"            _.`.W.0 : Q.|.{..X.X.X.X`.`.`.`._._.B.M.M.C 7 v M <.2.2.( / y.m.9.7.7.*.&.-.#.#.o.U U U I I U U +.>.#.&.            ",
"            Z.Z.W.0 : Q.`.`.`.`.`.`._._._._.B.B.M.M.M.C 7 v M <.<.2.2.( y.m.8.7.*.&.&.#.#.U U U U I I U U U o.;.#.&.            ",
"            Z.Z._.z : !.`._._._.W.W.Z.Z.B.B.B.M.M.M.M.C 7 v M <.1.1.2.( y.m.8.&.&.-.#.#.o.U U U I U I I I U +.r.#.+.            ",
"            Z.Z.Z.C & b._._.Z.B.B.B.B.M.M.M.M.M.x.l.x.V 7 v M O.<.<.<./ y.m.6.&.&.&.#.o.U U U U U I I I I I 1.g.#.+.            ",
"            Z.Z.Z.] & a.B.B.B.B.B.B.M.M.M.M.x.l.h.h.h.V 7 v M T <.<.<.! 2.k.5.#.o.o.o.U U I U U U I I I L L 8.g.#.+.            ",
"            W.M.M.a.; ] M.M.M.M.M.M.x.x.l.l.h.h.h.e.e.l a v M R +.<.<.~ 3.z.&.o.U U U U U U U U P P I P P I c.g.#.O.            ",
"            N.M.M.C.2 z M.M.M.x.x.x.h.h.h.h.e.w.e.9.q.j a c M U +.+.<.~ 2.z.+.U U I I U U U P P P P P P P O.S.8.E ,.            ",
"            n.M.M.M.8 6 C.x.l.l.h.h.e.e.e.e.9.w.9.7.=.f a c M U o.R R R 4.z.R U U I U U P P P P P L L L L 4.A.+.R t.            ",
"            E.x.M.M.S 2  .h.h.h.h.e.e.e.9.7.7.7.7.=.%.f a c M I o.U R T ,.z.U U U U P P P P L L L L M L M n.Z.+.+.              ",
"              h.x.M.d.5 D h.e.e.e.7.7.7.7.7.*.*.*.$.%.f a v M I o.o.U T ,.g.U U U I P P L L L K L K M L T '.b.U ,.              ",
"              k.j.x.h.Z g 2.8.9.7.=.=.%.%.$.$.#.#.#.#.f a v M I o.o.o.I O.g.I P P P P L L L K K L L L L p.}.+.W  .              ",
"                r.j.r.1.h S 5.*.*.%.$.$.#.#.#.#.#.#.#.f a c M I o.o.o.o.,.g.T P L L L L L L K K L L L Y >XN.U +.                ",
"                c.q.:.q.N f R &.$.$.#.#.#.#.#.#.#.#.#.s a c b I @.o.o.o.<.k.Y L L L L L L L K K L L M R.>X<.U H                 ",
"                b.:.q.q.*.c v o.#.-.#.#.#.#.#.#.o.U U s 4 c b I @.o.o.o.1.k.Y K K L L K K K L L L K  .sXb.I ~                   ",
"                  w.:.;.;.+.c M +.o.#.#.#.#.#.U U U U s 7 c b I I o.o.o.1.g.N K K K K K K K b K L ^ uX).U T (                   ",
"                    q.;.;.%.I b I o.o.#.#.#.#.U U U U s 7 x v I I o.o.@.4.k.N K K b b b b b n b Y $XqX( U T                     ",
"                    i.%.%.=.=.U L U U U U U U U U U U f V G H 3.3.i.i.p.T.T.n K b b b b b b b Y $XiXa.I E ..                    ",
"                      6.%.%.%.%.U P U U U U U U U U U N b.Q.). X=X<X@X$XyXU.b b n b b b b b ^ yXgXd.E @.(                       ",
"                        7.%.%.%.-.E U U U U U P P P P P P Y Y Y Y Y Y N N M v b b b b b b ] dXdXu.U U !                         ",
"                          6.=.%.%.-.#.U U U P P P P P L L L L L M M b b b b b b b n b G +XhX#X1.E U X.                          ",
"                            *.%.%.$.&.#.#.#.o.I P P L L L L L M L K b b n n b b b m P.jXhXR.T I ! ~                             ",
"                              1.$.$.$.$.$.$.%.;.&.T N M L L L b b b b v v b m ] ^.dXhX@X2.U E R !                               ",
"                                4.&.-.#.#.#.$.%.:.w.g.g.3.,.J N Y F G ' v./.uXdXiX).u.o.U U ~ /                                 ",
"                                  u.&.&.#.#.#.#.#.&.6.z.Z.].'.}.}.;X>X9X9X<XR.d.R U I U U ~ '                                   ",
"                                      1.$.#.-.#.#.#.#.E E &.5.6.8.i.0.1.+.R I I U U E R H                                       ",
"                                          <.&.#.#.#.o.o.U E W E U U U U R U U U U R !                                           ",
"                                                2.R E E E U U U U U I @.U E ~ /                                                 ",
"                                                      <.<.( ~ ~ ~ ~ ( / ~                                                       ",
"                                                                                                                                ",
"                                                                                                                                ",
"                                                                                                                                ",
"                                                                                                                                ",
"                                                                                                                                "
};
