/* XPM */
static char *s725e75Ya1B_png[] = {
/* columns rows colors chars-per-pixel */
"64 64 127 2 ",
"   c None",
".  c #241313",
"X  c #3D1B1B",
"o  c #232323",
"O  c #2C2C2C",
"+  c #3A3737",
"@  c #431F1E",
"#  c #4B2221",
"$  c #522424",
"%  c #5C2727",
"&  c #5D2827",
"*  c #5F2828",
"=  c #642A2A",
"-  c #6B2C2C",
";  c #712E2E",
":  c #75302F",
">  c #773030",
",  c #7A3131",
"<  c #464646",
"1  c #4C4C4C",
"2  c #535353",
"3  c gray37",
"4  c gray43",
"5  c #777777",
"6  c #7F7E7E",
"7  c #853535",
"8  c #8C3736",
"9  c #8D3837",
"0  c #933A39",
"q  c #9B3D3C",
"w  c #A23F3E",
"e  c #A4403F",
"r  c #A54040",
"t  c #AB4140",
"y  c #B44545",
"u  c #B94746",
"i  c #BC4847",
"p  c #BD4848",
"a  c #827E7E",
"s  c #C44B4A",
"d  c #CD4E4D",
"f  c #D04F4E",
"g  c #D1504F",
"h  c #D65150",
"j  c #DC5453",
"k  c #E55756",
"l  c #E65857",
"z  c #E85857",
"x  c #E55B5A",
"c  c #EB5958",
"v  c #E5605F",
"b  c #E56363",
"n  c #E56867",
"m  c #E66B6A",
"M  c #E6706F",
"N  c #E67373",
"B  c #E77C7B",
"V  c #848181",
"C  c #9A9A9A",
"Z  c gray71",
"A  c #BCBCBC",
"S  c #E88584",
"D  c #E88887",
"F  c #E88A8A",
"G  c #E99191",
"H  c #EA9897",
"J  c #EA9C9B",
"K  c #EAA09F",
"L  c #EBA5A5",
"P  c #EBA8A7",
"I  c #EBABAB",
"U  c #ECB5B5",
"Y  c #EDBCBB",
"T  c #C4C4C4",
"R  c #D1D1D1",
"E  c #D2D2D2",
"W  c #D4D4D4",
"Q  c #D4D5D5",
"!  c #D2D2D2",
"~  c #EDC0C0",
"^  c #EEC2C2",
"/  c #EEC3C3",
"(  c #EEC4C4",
")  c #EEC6C5",
"_  c #EEC7C7",
"`  c #EEC8C8",
"'  c #EEC9C9",
"]  c #EECAC9",
"[  c #EECACA",
"{  c #EFCDCD",
"}  c #EFCFCF",
"|  c #EFD2D2",
" . c #EFD3D2",
".. c #EFD3D3",
"X. c #EFD4D4",
"o. c #EFD6D6",
"O. c #EFD7D7",
"+. c #EFDADA",
"@. c #F0D9D9",
"#. c #F0DADA",
"$. c #F0DCDC",
"%. c #F0DEDE",
"&. c #F0DFDE",
"*. c #F0DFDF",
"=. c #F0E0E0",
"-. c #F0E1E1",
";. c #F0E2E2",
":. c #F1E2E2",
">. c #F1E4E4",
",. c #F1E6E6",
"<. c #F1E7E7",
"1. c #F1EAEA",
"2. c #F1EBEB",
"3. c #F1ECEC",
"4. c #F1EDED",
"5. c #F1EEEE",
"6. c #F2EFEF",
"7. c #F1F0F0",
"8. c #F1F1F1",
"9. c #F2F1F1",
"0. c #F1F1F2",
"q. c #F1F2F2",
"w. c #F2F2F2",
"e. c #F2F3F3",
"r. c #F2F4F4",
"t. c #F2F5F5",
"y. c #F2F6F6",
/* pixels */
"                                                                                                                                ",
"                                                                                                                                ",
"                                                                                                                                ",
"    o                                                                                                                           ",
"                                                                                                                                ",
"                                                                                                                                ",
"                                                                                                                                ",
"                                                                                                                                ",
"    O 3 2 2 + X                                                                                                                 ",
"    1 A T T a w d w , $                                                                                                         ",
"    1 T R W V t c k k d t 7 &                                                                                                   ",
"    1 T R W V t c k k k l k h u 0 -                                                                                             ",
"    1 T R W V t c k k k k k k k k j s w , $                                                                                     ",
"    1 T R W V t c k k k k k k k k k k k k d t 7 &                                                                               ",
"    1 T R W V t c k k k k k k k k k k k k k l k h u 0 -                                                                         ",
"    1 T R W V t c k k k k k k k k k k k k k k k k k k j s w , $                                                                 ",
"    1 T R W V t c k k k k k k k k k k k k k l b n n b l k k k d t 7 &                                                           ",
"    1 T R W V t c k k k k k k k k k k l N L ^ o.%.%.o.( L B l k k k h u 0 -                                                     ",
"    1 T R W V t c k k k k k k k k k M U >.e.r.e.e.e.e.r.r.>.Y N k k k k k j s w , $                                             ",
"    1 T R W V t c k k k k k k k k S @.r.5.I | e.e.e.e.>.I =.r.%.S k k k k k k k k d t 7 &                                       ",
"    1 T R W V t c k k k k k k k B %.r.r.^ x N [ e.r.%.S k K e.r.=.B k k k k k k k k l k h u 0 -                                 ",
"    1 T R W V t c k k k k k k x ( r.e.>.B k k n Y o.B k k b { e.r.[ v k k k k k k k k k k k k j s w , $                         ",
"    1 T R W V t c k k k k k k B 2.e.e.P k k x k b n k x l k S 2.e.5.S k k k k k k k k k k k k k k k k d t 7 &                   ",
"    1 T R W V t l k k k k k k J e.e.| n k n Y S k k n Y B k l U e.e.L k k k k k k k k k k k k k k k k k l k h u 0 -             ",
"    1 T R W V t c k k k k k k P r.5.F k k G e.%.S M [ r.U l k M %.r.I k k k k k k k k k k k k k k k k k k k k k k j s w , @     ",
"    1 T R W V t c k k k k k k H r.U l k x [ r.e.>.+.e.e.=.N k k H e.J k k k k k k k k k k k k k k k k k k k k k l k h u 8 #     ",
"    1 T R W V t c k k k k k k N >.U b k S 5.e.e.e.e.e.e.e.P k l H =.B k k k k k k k k k k k k k k k k k k k j s e , $           ",
"    1 T R W V t l k k k k k k l U e.{ D ^ r.e.e.e.e.e.e.e.@.S Y 5.Y l k k k k k k k k k k k k k k l k h u 0 -                   ",
"    1 T R W V t c k k k k k k k m { r.5.5.e.e.e.e.e.e.e.e.e.2.r.| m k k k k k k k k k k k k k j d t 7 %                         ",
"    1 T R W V t c k k k k k k k k M ( e.r.e.e.e.e.e.e.e.e.e.e.[ N k k k k k k k k k l k j p q ; #                               ",
"    1 T R W V t c k k k k k k k k k b H | 5.r.r.r.r.r.r.5.o.J b k k k k k k k k k d t 7 =                                       ",
"    1 T R W V t c k k k k k k k k k k k b S P Y ( ( Y I S n k k k k k k k j s q > $                                             ",
"    1 T R W V t c k k k k k k k k k k k k k k l l l l k k k k k l k g y 9 =                                                     ",
"    1 T R W V t c k k k k k k k k k k k k k k k k k k k k k j s w , $                                                           ",
"    1 T R W V t c k k k k k k k k k k k k k k k k l k h u 0 -                                                                   ",
"    1 T R W V t c k k k k k k k k k k k k k k j d t 7 %                                                                         ",
"    1 T R W V t c k k k k k k k k k l k h i q ; #                                                                               ",
"    1 T R W V t c k k k k k k k k d t 7 *                                                                                       ",
"    1 T R W V t c k k l k j s q : #                                                                                             ",
"    1 T R W a t c k f y 8 =                                                                                                     ",
"    1 T R W a 8 r , $                                                                                                           ",
"    1 T R W 6 .                                                                                                                 ",
"    1 T R R V                                                                                                                   ",
"    1 T R R V                                                                                                                   ",
"    1 T R R V                                                                                                                   ",
"    1 T R R V                                                                                                                   ",
"    1 T R R V                                                                                                                   ",
"    1 T R R V                                                                                                                   ",
"    1 T R R V                                                                                                                   ",
"    1 T R R V                                                                                                                   ",
"    1 T R R 6                                                                                                                   ",
"    < T R R 5                                                                                                                   ",
"    1 T R R V                                                                                                                   ",
"    1 T R R V                                                                                                                   ",
"    1 T R R V                                                                                                                   ",
"    1 T R R V                                                                                                                   ",
"    1 T R R V                                                                                                                   ",
"    1 T R R V                                                                                                                   ",
"    1 T R R V                                                                                                                   ",
"    1 T R R V                                                                                                                   ",
"    < T R W V                                                                                                                   ",
"    O C Z Z 4                                                                                                                   ",
"                                                                                                                                ",
"                                                                                                                                "
};
