/* XPM */
static char *s72YT1d4obM_png[] = {
/* columns rows colors chars-per-pixel */
"64 64 255 2 ",
"   c None",
".  c #040405",
"X  c #0B0505",
"o  c #0C0906",
"O  c #04050A",
"+  c #0A060A",
"@  c #050A0A",
"#  c #0B0A0B",
"$  c #050B05",
"%  c #1A0A05",
"&  c #120A0B",
"*  c #1B0C0B",
"=  c #160706",
"-  c #0B110C",
";  c #1A140D",
":  c #0B0C12",
">  c #050916",
",  c #130E15",
"<  c #0C1317",
"1  c #131313",
"2  c #1C1C1C",
"3  c #191617",
"4  c #240B05",
"5  c #2C0B04",
"6  c #2A0D0A",
"7  c #230907",
"8  c #320C05",
"9  c #380D08",
"0  c #271409",
"q  c #3B1406",
"w  c #38170A",
"e  c #251915",
"r  c #371514",
"t  c #382A19",
"y  c #2C2710",
"u  c #07152B",
"i  c #081A37",
"p  c #12182A",
"a  c #291B2C",
"s  c #1E232A",
"d  c #292927",
"f  c #332623",
"g  c #3A3325",
"h  c #383637",
"j  c #292D33",
"k  c #440C09",
"l  c #550E0A",
"z  c #461608",
"x  c #58170B",
"c  c #5A1B17",
"v  c #4A1513",
"b  c #62130B",
"n  c #69180C",
"m  c #78160C",
"M  c #6A1A15",
"N  c #751914",
"B  c #660F09",
"V  c #49210B",
"C  c #592909",
"Z  c #462615",
"A  c #572916",
"S  c #632B0A",
"D  c #6B2C0B",
"F  c #652707",
"G  c #752A08",
"H  c #69320C",
"J  c #75340C",
"K  c #7B360C",
"L  c #7E390C",
"P  c #783206",
"I  c #792A19",
"U  c #7A3A14",
"Y  c #6B3319",
"T  c #483727",
"R  c #4A372F",
"E  c #643727",
"W  c #3F4226",
"Q  c #7B4218",
"!  c #706E1E",
"~  c #4D4928",
"^  c #4D4532",
"/  c #544735",
"(  c #5D4E2F",
")  c #66583D",
"_  c #6D4F30",
"`  c #7A6135",
"'  c #0C1B42",
"]  c #092247",
"[  c #162844",
"{  c #0A2659",
"}  c #132B5B",
"|  c #0B2D67",
" . c #0C3475",
".. c #10346A",
"X. c #242748",
"o. c #494949",
"O. c #525253",
"+. c #5A5A5B",
"@. c #5F5852",
"#. c #585046",
"$. c #69504A",
"%. c #786546",
"&. c #7B714F",
"*. c #696968",
"=. c #726D6C",
"-. c #797876",
";. c #6A7170",
":. c #59635C",
">. c #86190A",
",. c #881B14",
"<. c #971914",
"1. c #991D0B",
"2. c #A81A13",
"3. c #B61A15",
"4. c #B1190C",
"5. c #9C240E",
"6. c #823A0C",
"7. c #86390A",
"8. c #8C3013",
"9. c #B4260C",
"0. c #A72412",
"q. c #AD2712",
"w. c #8C3B2B",
"e. c #A93F22",
"r. c #D71A0B",
"t. c #CB1D14",
"y. c #D61A14",
"u. c #C91A0D",
"i. c #E31C0C",
"p. c #E51A13",
"a. c #D8250C",
"s. c #C62413",
"d. c #DD2713",
"f. c #CA3611",
"g. c #E7280C",
"h. c #F52D0D",
"j. c #F62908",
"k. c #ED3C0C",
"l. c #F4330C",
"z. c #F6380D",
"x. c #EB2B12",
"c. c #E82614",
"v. c #F43311",
"b. c #F63B13",
"n. c #F32C15",
"m. c #EF3823",
"M. c #8C430E",
"N. c #89430E",
"B. c #93460C",
"V. c #8A4614",
"C. c #984917",
"Z. c #B74813",
"A. c #964E32",
"S. c #C44C13",
"D. c #DA5513",
"F. c #F7480D",
"G. c #FA560C",
"H. c #F84614",
"J. c #F85914",
"K. c #EA5B13",
"L. c #F86116",
"P. c #FA610E",
"I. c #F1472C",
"U. c #856C48",
"Y. c #877852",
"T. c #947E57",
"R. c #8E794D",
"E. c #8E7874",
"W. c #F05746",
"Q. c #D66A62",
"!. c #A99824",
"~. c #DCBD12",
"^. c #D7C232",
"/. c #F6D323",
"(. c #EFD02C",
"). c #FADA2E",
"_. c #9A875A",
"`. c #8F8553",
"'. c #A48B59",
"]. c #B29258",
"[. c #AA9664",
"{. c #B59A6B",
"}. c #A0887A",
"|. c #BAA772",
" X c #A79863",
".X c #F88776",
"XX c #C6AD74",
"oX c #CBB576",
"OX c #D5B77A",
"+X c #CDAC6B",
"@X c #ECBD74",
"#X c #C7A95A",
"$X c #E7C47B",
"%X c #FDCB7B",
"&X c #FCC777",
"*X c #FACB77",
"=X c #E1D372",
"-X c #093C88",
";X c #033C9C",
":X c #073A98",
">X c #113A89",
",X c #053EA3",
"<X c #0B449C",
"1X c #07449A",
"2X c #0D4390",
"3X c #0642A4",
"4X c #0A44A4",
"5X c #0C4BA5",
"6X c #0B4BAC",
"7X c #074BA8",
"8X c #1249A8",
"9X c #0B4AB3",
"0X c #0C4DB0",
"qX c #7C8284",
"wX c #898789",
"eX c #969696",
"rX c #928D8B",
"tX c #AC9792",
"yX c #9EA3A5",
"uX c #A9A9AA",
"iX c #BCBCBC",
"pX c #B6B5B7",
"aX c #AFAAAA",
"sX c #9FA09F",
"dX c #D5BE85",
"fX c #CCB3B4",
"gX c #EFAFA6",
"hX c #F39381",
"jX c #DDC284",
"kX c #E6CA89",
"lX c #FCCE81",
"zX c #F6CE82",
"xX c #EDD48C",
"cX c #FDD284",
"vX c #FED58C",
"bX c #FDDA8D",
"nX c #F7D787",
"mX c #FED794",
"MX c #FEDA93",
"NX c #F6D894",
"BX c #EBD090",
"VX c #FDE08E",
"CX c #BFBFC0",
"ZX c #CDCECE",
"AX c #C4C5C4",
"SX c #D8D9D8",
"DX c #D1D3CF",
"FX c #FAD5D0",
"GX c #E7E7E7",
"HX c #F5F3EE",
"JX c #F4F4F4",
"KX c #FCFCFC",
"LX c #F8F8F9",
"PX c #EBF4F1",
"IX c #DEE3E3",
/* pixels */
"                                                            < : # # #                                                           ",
"                                                        # X * 9 z z 6 X #                                                       ",
"                                                    > + w 7.S.D.K.K.D.8.5 @                                                     ",
"                                                  + 6 8.D.L.P.K.Z.C.C.S.Z.8 :             1 1                                   ",
"                                              < > z S.L.J.G.D.A.tXAXfXrXA.8.=         + + # . #                                 ",
"                                            , . V D.L.J.P.K.A.fXFXHXhXgXpXw.z #     - . ,     # . . #                           ",
"                                            O z D.P.J.J.P.Z.tXFXW..XI.W.FXE.x & 3 # # - - 1       2 # . #                       ",
"                                          $ 0 S.J.J.G.J.G.C.AXFXI.m.I.W..XaXN o O 1         1         1 . #                     ",
"                                        @ % e.J.J.J.J.G.H.e.AXFXI.gXgXgXQ.=.v 9 k z v 9 0 * 1 2         # #                     ",
"                                        O F K.G.G.G.F.F.F.f.}.FXQ.tXwX$.,.5.s.g.x.x.x.d.s.,.9 3           .                     ",
"                                      & 7 f.G.F.F.F.F.F.F.H.w.qX$.Y 0.f.b.z.z.h.h.a.9.>.b v 6 , aX      +..                     ",
"                                      + G H.H.F.F.F.F.H.k.9.x N s.x.z.l.v.h.c.0.b 5 X . O X + a +.eXaXGXwX.                     ",
"                                    # * f.F.H.F.b.b.b.f.n B 4.c.x.l.j.v.d.1.A * . . . . . 1 ;.ZXeXwXiXPXO..                     ",
"                                    + b k.z.b.z.b.b.9.B m s.c.c.c.x.g.1.A Y.dXY.# . . # O.pXJXKXKXKXKXAX1 .                     ",
"                                    X 0.z.v.l.l.l.5.l 4.a.i.a.c.c.q.I U.oXMX'.Y.^ #       KXKXKXKXKXGXO..                       ",
"                                  : 6 d.v.l.l.v.5.l 3.y.i.i.d.9.I U.OXMXbXnX/ 2 %.2       KXGXSXGXZX*.# .                       ",
"                                - $ b h.h.h.l.3.l u.g.a.a.0.I U.) {.VXMXMXnX/ . ^ 1 # &   eXSXeX-.-.# .                         ",
"                              X 5 k 1.l.h.n.a.9 x >.>.I Q R.oXkXt g kXMXmXnX&.. t ) %.U./ 2 =.GXGXeX. #                         ",
"                            + k s.2.s.l.h.x.n 0 g &._.XXBXMXMXkXf + {.bXvXMX'.T.jXbXvXcXzX'.e +.*.2 .                           ",
"                          : 8 s.c.a.x.h.n.q.w A Z OXMXbXMXmXMXNX/ . Y.bXMX$XoXNXMXMXvXcX%XzXY.. . .                             ",
"                          . m p.y.g.h.h.c.b x D z Y.NXbXMXMXmXMX'.X Y.bXMXnXMXMXMXMXvXcX%X&XOXe X                               ",
"                          . ,.p.t.4.>.>.,.* c F x t Y.dXNXMXMXMXBX_.OXMXbXMXMXMXMXvXvXcX%X&X$Xf :                               ",
"                          O m t.l Z U.[.[.) w x x z q R jXbXOXXXNXVXmXmXbXMXbXbXMXvXcXlX%X&X$Xf                                 ",
"                          # 8 m R OXlXcXMXxX%.q x z x w XXcX( ; %.XXxXMXbXMXMXbXbXnXlX%X&X%X|.;                                 ",
"                            # 0 XX%X@X{.{.nXkXR z x w %.BX$XT % = e ^ &._.|.NXMXvXcX%X&X%XOX^ +                                 ",
"                            , g $X&X&XOX) %.xXOX/ w t XXMX$XT 4 8 5 4 % * e %.XX$X%X*XOX_.g .                                   ",
"                              T $X&X%X%X+X( {.MXkX[.XXbXvX%X` % 5 8 9 z z z 5 0 T / T y # . #                                   ",
"                              y OX&X&XlXbX[.[.MXbXMXMXMXbXcX+X_ 0 4 8 8 9 q z q 8 5 5 + O +                                     ",
"                              o T.lX&X$XXXT.jXMXMXbXMXMXMXvXlX@X` % 5 8 9 q k k z k q = .                                       ",
"                                e [.zX$XOXBXbXMXNXbXbXMXMXvXvX%X'.= * 6 4 4 8 5 % % o . @                                       ",
"                                # ; ) [.oXOXXX_.Y.BXbXMXMXbXvXcX].9 9 % 7 & * 1 % M r .                                         ",
"                                    O # 1 ; 0 6 % %.kXbXMXbXvXbX{.N 3.m k ( '.( b ,.% #                                         ",
"                                      1 O . + o X + / oXbXcXcXnXXXc s.<.Z +X{.Y <.7 @                                           ",
"                                      # = 8 l b l k = f `.$XlX%X@X_ M E [.T.A ,.5 #                                             ",
"                                  > * x 2.y.c.x.g.g.2.7 6 T R.#X+X+XY.%.^ p 6 5 @                                               ",
"                              , & l 4.y.y.r.a.x.j.c.,.b 3.e { [ s r c m n [ ] + 3           . . . . . #                         ",
"                          # O . 7 ,.3.r.r.g.x.a.1.l m a.x.c 2X6X>Xa q.v.n.N } ] # 3     , X 4 V V w = O :                       ",
"                        # R wXrX-.@.T m y.n.9.l B 4.g.x.h.N  .6X9X1Xf 5.,.c ] <Xu . > # O w U V.B.V.Y e . o                     ",
"                      1 1 wXSXLXKXJXDX=.M >.7 m y.r.p.c.h.,. .0X5X-X| {  .-X<X5X} @.y . & H M.N.N.B.B.Y = . .                   ",
"                      1 O.sXSXLXKXKXKXJX-.@ 7 t.y.t.i.g.x.M -X8X..*._.:. .0X0X8X} |.!.. 0 L 6.6.N.N.B.J f o.. #                 ",
"                    1 eXJXKXLXLXKXKXLXGXiX2 x a.y.y.i.j.d.f 1X .&.=X).(.( 2X5X6X| `.^.0 w 6.6.7.7.6.N.H o.eXX .                 ",
"                  . -.LXAXDXKXKXLXKXLXGXwX3 <.r.u.r.p.c.,.} 5XX.#X/././.!...6X8X-X~ ^.y 0 K 6.6.6.6.N.C -.eX. #                 ",
"                  2 ZXGXo.pXLXiXGXKXKXLXIXh k <.3.u.4.N [ 4X8X[ ^./././.!...6X9X9X} ! y 6 K 6.L L 6.6.A uX+..                   ",
"                . h JXeXj SXiXo.GXKXLXHXPXrXu | X.a i | 1X5X6X| ! (./.~.~ -X6X6X7X<Xu . z K L L 6.6.J / pX2 .                   ",
"                . o.LXpXuXJXO.+.LXLXLXHXPXpXi 3X4X<X5X5X9X5X6X4X} ~ ! W ..7X6X6X<X5X' & C P P K K 6.C wX-.. #                   ",
"                . h GXKXKXLXwXiXLXLXSXZXPXaXp :X3X7X7X7X6X6X8X6X5X>X .:X6X7X5X6X6X2Xu % S G G J K J / yX2 .                     ",
"                  1 iXKXKXLXLXLXLXGX*.uXIX:.u :X1X3X4X4X6X6X6X6X6X6X6X6X6X5X5X6X6X| O 0 S F S D P C -.o.. #                     ",
"                  . O.GXLXLXJXJXLXuX2 O.o.; : { -X;X:X3X4X4X4X4X6X7X6X6X5X5X7X6X<Xu . z F C S G D T -.. #                       ",
"                    . O.ZXLXJXJXJXuXqXd 4 A A 0 ' | :X,X;X3X3X3X4X4X4X4X3X3X3X2X{ O = A D F S S V -.+..                         ",
"                      . d =.aXZXDXCX-.e V F F V & > { ;X;X;X;X;X;X;X;X,X,X3X<X{ > $ X 4 C F S Z #.yX2 .                         ",
"                        . . # d j e 0 V S F C w C w i :X;X;X;X;X;X;X;X3X4X>X] O $   2 X X = = X h j . 1                         ",
"                            X j =.Z H D D F C w F q u -X:X1X;X,X3X<X2X .] > O &         # # # # . . #                           ",
"                            . O.E.S P P P G C V D w . > u i i i i u < @ O o                                                     ",
"                            # eX@.J 7.K K K S V J w . # o o o . X # & &                                                         ",
"                          # d iXR K L K K L D C J 0 O                                                                           ",
"                          . O.iXA 6.6.L L 6.J J J 6 +                                                                           ",
"                          . -.uXA 7.6.6.6.6.6.U A = #                                                                           ",
"                          . wXeXC 7.6.6.6.6.6.S % .                                                                             ",
"                          . wXrXC M.N.N.6.6.7.H + 3                                                                             ",
"                          . *.rXA B.M.N.M.M.V.C +                                                                               ",
"                            2 R w V.V.B.B.V.Q 0 +                                                                               ",
"                            # . = Z Q V.V.Y w X :                                                                               ",
"                                & o * 0 ; # + :                                                                                 ",
"                                    # # # #                                                                                     "
};
