/* XPM */
static char *s72o5IGD0Ux_png[] = {
/* columns rows colors chars-per-pixel */
"64 64 130 2 ",
"   c None",
".  c #120702",
"X  c #150802",
"o  c #1D0B02",
"O  c #230E03",
"+  c #280F03",
"@  c #271005",
"#  c #2C1103",
"$  c #341404",
"%  c #3B1704",
"&  c #3E1805",
"*  c #3E1A08",
"=  c #441A05",
"-  c #4C1D06",
";  c #461C08",
":  c #4E1E08",
">  c #511F06",
",  c #4F2007",
"<  c #532006",
"1  c #5D2407",
"2  c #5E2508",
"3  c #622507",
"4  c #672807",
"5  c #6B2907",
"6  c #672808",
"7  c #6E2B08",
"8  c #742C07",
"9  c #7A2D07",
"0  c #722C08",
"q  c #7A2E08",
"w  c #7E3008",
"e  c #843208",
"r  c #8A3509",
"t  c #913709",
"y  c #953809",
"u  c #9D3C09",
"i  c #9C3C09",
"p  c #9F3C09",
"a  c #9D3C0A",
"s  c #9B3B09",
"d  c #A03D0A",
"f  c #A13D0A",
"g  c #A23E0A",
"h  c #A63F09",
"j  c #A43E0A",
"k  c #A53F0A",
"l  c #A73F0A",
"z  c #A23D0A",
"x  c #A83F0A",
"c  c #A7400A",
"v  c #A7400B",
"b  c #A7400A",
"n  c #AA4009",
"m  c #A8400A",
"M  c #A9400A",
"N  c #AA400A",
"B  c #AC4109",
"V  c #AC410B",
"C  c #AD420B",
"Z  c #AE420A",
"A  c #AF420A",
"S  c #AF430B",
"D  c #AC410A",
"F  c #B0430A",
"G  c #B2430A",
"H  c #B2440B",
"J  c #B3440B",
"K  c #B4440A",
"L  c #B5440B",
"P  c #B4450B",
"I  c #B5450B",
"U  c #B7460B",
"Y  c #B5450B",
"T  c #B8450A",
"R  c #BB450B",
"E  c #B9460A",
"W  c #B9460B",
"Q  c #BB460B",
"!  c #BB470B",
"~  c #BC470B",
"^  c #BD470B",
"/  c #BE470A",
"(  c #BA460B",
")  c #BD480B",
"_  c #BF480A",
"`  c #BE480B",
"'  c #BF480B",
"]  c #BD480C",
"[  c #BE480B",
"{  c #C0490B",
"}  c #C1490B",
"|  c #C3490B",
" . c #C34A0B",
".. c #C44A0B",
"X. c #C54A0B",
"o. c #C64A0B",
"O. c #C74A0B",
"+. c #C64B0B",
"@. c #C74B0B",
"#. c #C0490C",
"$. c #C0490D",
"%. c #C54B0C",
"&. c #C64B0C",
"*. c #C74B0C",
"=. c #C74C0E",
"-. c #C44A0B",
";. c #C94A09",
":. c #CA4B09",
">. c #C84B0B",
",. c #C94B0B",
"<. c #CA4B0A",
"1. c #C94C0B",
"2. c #CA4C0A",
"3. c #CA4C0B",
"4. c #CB4C0B",
"5. c #CB4D0B",
"6. c #CC4C0B",
"7. c #CC4D0B",
"8. c #CD4D0B",
"9. c #CE4D0B",
"0. c #C84B0C",
"q. c #C94B0C",
"w. c #C94C0C",
"e. c #CB4D0C",
"r. c #CB4C0B",
"t. c #C9551B",
"y. c #CB5C24",
"u. c #CB5D26",
"i. c #DA8F6A",
"p. c #DFA183",
/* pixels */
"                                                                                                                                ",
"                                                                                                                                ",
"                                                                                                                                ",
"  p.u.u.t.=.=.$.= s w.&.&.&.q.s ; $.&.&.&.&.q.2 q w.&.&.&.&.K = Z q.&.&.&.w.e < ....&.&.&. .: r <.......<.l = Q ....&.&.q.7     ",
"  i.<.<.<.2.2. .= s 7.2.2.2.7.s = ..2.2.2.2.7.3 q 7.2.2.2.2.Q & Z 2.2.2.2.7.e < 2.2.2.2.2...: t 7.2.2.2.7.l = ~ 2.2.2.2.7.7     ",
"    e e e e e w # 3 e e e e e 3 # w e e e e e % : e e e e e q + 0 e e e e e < $ e e e e e e $ 1 e e e e e 4 + q e e e e e ;     ",
"    2 2 # % 2 2 1 2 2 < o < 2 2 1 2 2 % # 2 2 2 2 2 2 + ; 2 2 1 2 2 - O < 2 2 2 2 2 $ $ 2 2 1 2 2 < O > 2 2 1 2 2 = O 2 2 2     ",
"    <.2.< w 2.<.<.<.2.G % H 2.<.<.<.7.q < 2.<.<...<...- y 2.<.<.<.2.f = ) <.<.<.<.2.4 0 2.<.<.<.2.Q & m 2.<.<.<.2.r < ..<.w.    ",
"    ....< q ..........Z % Z ..........q < ...... ... .; t ..........i = Q ..........3 7 ..........K & l ..........e :  ...&.    ",
"    > > + $ > : - : > - o - > : - : < $ # > > : - : : O & > : - : > = O : > : - > > # $ > : - : > - o = > : - : > % + : > :     ",
"    y y y y y r # 0 y y y y y 0 $ r y y y y y = < y y y y y e # w y y y y y 3 & t y y y y t $ 4 y y y y y 9 # r y y y y y <     ",
"    2.2.7.7.7...= i 7.2.2.2.7.i ; ..2.2.2.2.7.3 q 7.2.2.2.7.Q = G 7.2.2.2.7.e < 2.2.2.2.2.<.: t 7.2.2.2.7.m = ) 7.2.2.2.7.0     ",
"    l l m m l f $ e m l m l m e % f l m m l m : 3 m l m m m s $ t m v m l m 5 = l l m m l l & q m l m v m r $ i v m m l m 1     ",
"    = = # $ = = $ & = & O & = & $ = = $ # = = % % = = + % = = $ = = % + = = & % = = # $ = = $ & = = + & = = $ = = $ # = = %     ",
"    Q ) > 8 ) ~ ~ ~ ~ l $ v ~ ~ ~ ~ ) 8 < ~ ~ ~ ~ ~ K = r ) ~ ~ ~ ) y & H ~ ~ ~ ~ ) 2 4 ) ~ ~ ~ ~ Z % i ) ~ ~ ~ ) e - Q ~ ]     ",
"    <.7.< w 7.2.2.2.7.K % K 7.2.2.2.7.q < 2.2.2.2.2...- y 7.2.2.2.7.f =  .2.2.2.2.7.4 0 7.2.2.2.2.Q = Z 7.2.2.2.7.r < 2.2.w.    ",
"    0 0 $ ; q 0 0 0 0 4 O 6 0 0 0 0 q = $ 0 0 0 0 0 0 # < 0 0 0 0 0 1 O 7 0 0 0 0 q % = 0 0 0 0 0 5 O 3 0 0 0 0 0 : # 0 0 0     ",
"    4 4 4 4 4 4 O > 4 4 4 4 4 > O 4 4 4 4 4 4 $ & 4 4 4 4 4 3 O < 4 4 4 4 4 = # 4 4 4 4 4 4 + - 4 4 4 4 4 < O 3 4 4 4 4 4 %     ",
"    <.2.2.2.2. .= s 7.2.2.2.7.s = ..2.2.2.2.7.3 q 7.2.2.2.2.Q & Z 2.2.2.2.7.e < 2.2.2.2.2...: t 7.2.2.2.7.l = ~ 2.2.2.2.7.0     ",
"    ) )  . . .Q & t  . . . . .t = Q  . . .)  .< 0  .)  . . .Z % l  . . .) ..w <  .)  . . .~ - r  .)  . . .i & K  . . .)  .5     ",
"    = = % & = = O % = = % = = % O = = & & = = + $ = = % = = = O & = = % = = $ + = = & & = = + $ = = % = = % O = = = % = = #     ",
"    f f = 3 f f f f f r # r f f f f f 3 = f f f f f i % q f f f f f w $ s f f f i f : < f f f f f t $ e f f f f f 7 & i i f     ",
"    2.7.< e 7.2.2.2.7.K % K 7.2.2.2.7.w 2 7.2.2.2.7...- s 7.2.2.2.7.f =  .7.2.2.2.7.4 q 7.2.2.2.7.~ = Z 7.2.2.2.7.r < 2.2.7.    ",
"    s s = 2 i s i s s r # r s s i s i 2 = s s i s s y $ 0 i s i s i q $ t s s i s i : < i s i s s r # e s s i s i 4 & s s i     ",
"    = = = = = = o % = = % = = % o = = = = = = + # = = & = = = o & = = & = = $ + = = = = = = O $ = = & = = % o = = = & = = #     ",
"     . . . . .~ = y .. . . ...y = ~  . . . ...2 0 .. . . . .G % m  . . . ...e <  . . . . .) - r .. . . ...f & K  . . . ...5     ",
"    <.2.2.2.2. .= s 7.2.2.2.7.s =  .2.2.2.2.2.3 q 7.2.2.2.2.K & Z 2.2.2.2.7.e < 2.2.2.2.2...: t 7.2.2.2.2.l = ~ 2.2.2.2.7.7     ",
"    3 3 3 3 3 2 o - 3 3 3 3 3 - O 2 3 3 3 3 3 # % 3 3 3 3 3 < o < 3 3 3 3 3 & # 3 3 3 3 3 2 + = 3 3 3 3 3 : o < 3 3 3 3 3 $     ",
"    q 8 $ ; 8 8 8 8 8 4 O 4 8 8 8 8 8 = $ 8 8 8 8 8 0 + < 8 8 8 8 8 1 + 5 8 8 8 8 8 % = 8 8 8 8 8 4 O 3 8 8 8 8 8 : # 8 8 q     ",
"    2.7.< w 7.2.2.2.2.K % K 7.2.2.2.7.w 1 7.2.2.2.2...- y 7.2.2.2.7.f =  .7.2.2.2.7.4 q 7.2.2.2.7.~ = Z 7.2.2.2.7.r < 2.2.7.    ",
"    Q Q : 0 Q Q Q Q Q f $ l Q Q Q Q Q 0 < Q Q Q Q Q K = r Q Q Q Q Q t & Z K Q Q Q Q 2 4 Q Q Q Q Q m % i Q Q Q Q Q w - K Q W     ",
"    & & + # & % # $ & % O % & $ # % & # + & & $ $ & % + $ & % # % & $ O % & $ $ & & # # & % # $ & % O $ & % # % & $ + & & $     ",
"    Z m Z Z Z l $ e Z Z Z Z Z e % l Z Z Z m Z > 4 Z m Z Z Z i $ y Z Z Z m Z 0 - Z m Z Z Z m = q Z Z Z Z Z r $ f Z Z Z m Z 2     ",
"    2.2.2.2.7...= i 7.2.2.2.7.i ; ..7.2.2.2.7.3 q 7.2.2.2.7.Q = G 7.2.2.7.7.e < 2.7.7.2.2.<.: t 7.2.2.2.7.m = ) 7.2.2.2.7.0     ",
"    r r r r r e # 4 r r r r r 4 # e r r r r r = > r r r r r w # q r r r r r < % r r r r r r $ 3 r r r r r 0 # e r r r r r -     ",
"    > > + $ > : : : > = o ; > : : : > $ + > : : : > : o % > : : : > = o : > : : : > # # > : : : > - o = > : : : > $ O : : :     ",
"    ..<.< w 2.......<.G % G <...<...2.q < <......... .- y 2.......2.i = ) ........2.4 0 2.........K & m <.......2.r , ....=.    ",
"    ..2.< w 2.......<.G % G <.......2.q < <.<....... .- y 2.......2.i = ) ..<.....2.4 0 2.......<.Q & m 2.......2.r < ....=.    ",
"    < < + $ < > : > < - o - < > : > < $ + < > : > > > O & < > : > < = o : > > : > < # $ < > : > > - o = < > : > < % O > > <     ",
"    e e r r e e # 4 r e r e r 4 # e e r r e r & : r e r r r q # q r r r e r < % e e r r e e $ 3 r r r r r 5 # w e r r e r -     ",
"    2.2.7.2.7...= i 7.2.2.2.7.i ; ..7.2.2.2.7.3 q 7.2.2.2.7.Q = G 7.2.7.2.7.e < 2.2.2.2.2.<.: t 7.2.2.2.7.m = ) 7.2.2.2.7.0     ",
"    Z Z Z Z Z l % e Z Z Z Z Z e % v Z Z Z Z Z > 4 Z Z Z Z Z i $ y Z Z Z Z Z 0 - Z Z Z Z Z m = q Z Z Z Z Z r $ f Z Z Z Z Z 2     ",
"    & % + # % % # $ % $ O $ % $ # % % # + % % # $ % % + $ % % # % % $ O % % $ # % % # # % % # $ % % O $ % $ # % % $ + % % $     ",
"    K Q : 0 Q K Q K Q f $ f Q K Q K Q 0 < K K K K K H = r Q K Q K Q t & Z Q K K K Q 2 4 Q K K K K m % s Q K Q K Q w - K K W     ",
"    2.7.< w 7.2.2.2.7.K % K 7.2.2.2.7.w 1 7.2.2.2.2...- y 7.2.2.2.7.f =  .7.2.2.2.7.4 q 7.2.2.2.7.~ = Z 7.2.2.2.7.r < 2.2.7.    ",
"    q q $ - q 9 9 9 9 4 O 5 9 9 9 9 q ; $ q 9 9 9 9 8 # < q 9 9 9 9 3 + 8 9 9 9 9 q % = q 9 9 9 9 0 + 4 9 9 9 9 q > # q 9 q     ",
"    2 2 2 2 2 < o - 3 2 2 2 3 ; O < 2 2 2 2 2 # % 3 2 2 2 2 < o > 2 2 2 2 3 & + 2 2 2 2 2 2 + = 3 2 2 2 2 : o < 2 2 2 2 3 $     ",
"    <.2.2.2.2. .= s 2.2.2.2.7.s =  .2.2.2.2.2.3 q 7.2.2.2.2.K & Z 2.2.2.2.7.e < 2.2.2.2.2...: t 7.2.2.2.2.l = ~ 2.2.2.2.7.7     ",
"     . . . . .~ = y .. . . ...y = )  . . . ...2 q .. . . ...G % m .. . . ...e <  . . . . . .- r .. . . ...f & Q .. . . ...5     ",
"    - ; = = ; = o % - ; = ; - % O = ; = = ; - + # - ; = = - = o = - = = ; - $ + ; ; = = ; ; O $ - ; = = - % o = ; = = ; - #     ",
"    s s & 2 s s s s s e # e s s s s s 1 = s s s s s y $ 0 s s s s s q $ t s s s s s - < s s s s s r # e s s s s s 4 % y s s     ",
"    2.7.< e 7.2.2.2.7.K % K 7.2.2.2.7.w 2 7.2.2.2.7...- s 7.2.2.2.7.f =  .7.2.2.2.7.4 q 7.2.2.2.7.~ = Z 7.2.2.2.7.r < 2.2.7.    ",
"    f f = 4 l f l f f t # t f f l f l 3 ; f f l f f i % q l f l f l e $ s f f l f l > < l f l f f y $ r f f l f l 5 & f f l     ",
"    = = % & = = O % = = % = = % O = = & % = = + # = = % = = & O % = = % = = $ + = = % & = = + $ = = % = = % O = = & % = = #     ",
"    ) ) ) ) ) Q & t  .) ) )  .t = Q ) ) ) )  .< 0  .) ) ) ) Z % l ) ) ) )  .w < ) ) ) ) ) Q - r  .) ) )  .i % H ) ) ) )  .5     ",
"    <.2.2.2.2...= i 7.2.2.2.7.i = ..2.2.2.2.7.3 q 7.2.2.2.2.Q & Z 7.2.2.2.7.e < 2.2.2.2.2...: t 7.2.2.2.7.v = ) 2.2.2.2.7.0     ",
"    7 5 5 5 5 4 O < 5 5 5 5 5 < + 4 5 5 5 5 7 $ = 5 5 5 5 5 4 O 2 5 5 5 5 5 - # 5 5 5 5 5 5 # : 5 5 5 5 5 < O 4 5 5 5 5 5 &     ",
"    0 0 # = 0 7 0 7 0 3 O 3 0 7 0 7 0 = $ 0 7 0 0 7 7 + < 0 7 0 7 0 < O 5 7 7 0 7 0 % & 0 7 0 7 0 6 O 2 0 7 0 7 0 : # 7 7 0     ",
"    <.7.< w 7.2.2.2.7.K % K 2.2.2.2.7.q < 2.2.2.2.2...- y 7.2.2.2.7.f =  .2.2.2.2.7.4 0 7.2.2.2.2.Q = Z 7.2.2.2.7.r < 2.2.w.    ",
"    ~ ) > q  .~ ~ ~ ) x % m ) ~ ~ ~  .q < ) ~ ~ ~ ~ Q = r ) ~ ~ ~ ) y = K ~ ~ ~ ~ ) 3 5  .~ ~ ~ ) Z % f ) ~ ~ ~  .e : ~ ~ ]     ",
"    * & o @ & & & & & $ . $ & & & & & + o & % & & & % X # & & & & & $ X % & & & & & o O & & & & & % . $ & & & & & # o & & &     ",
"                                                                                                                                ",
"                                                                                                                                ",
"                                                                                                                                "
};
